<svg xmlns="http://www.w3.org/2000/svg" viewBox="0 0 64 64" fill="none">
  <path d="M34 58c-3-8-4-15-3-23 0-11 9-17 16-17 6 0 10 4 10 9 0 8-8 14-18 14-2 0-4 0-6-1" stroke="#9f2543" stroke-width="3.2" stroke-linecap="round" stroke-linejoin="round"/>
  <path d="M31 35c-8-1-14-7-14-14 0-5 4-9 10-9 7 0 14 6 14 16 0 4-1 7-3 10" stroke="#bf3f5f" stroke-width="3.2" stroke-linecap="round" stroke-linejoin="round"/>
  <path d="M28 58c0-10-4-17-10-23" stroke="#496251" stroke-width="3.2" stroke-linecap="round"/>
  <path d="M18 38c-4 0-7 2-9 5 4 1 7 0 10-2" stroke="#496251" stroke-width="3.2" stroke-linecap="round" stroke-linejoin="round"/>
</svg>
